<mxfile host="app.diagrams.net" modified="2024-06-18T18:20:28.237Z" agent="Mozilla/5.0 (Windows NT 10.0; Win64; x64) AppleWebKit/537.36 (KHTML, like Gecko) Chrome/126.0.0.0 Safari/537.36" version="24.5.5" etag="VwNEyoIW2HXeu8A1yTwn" type="github">
  <diagram name="Page-1" id="TRfnmhxD5e6gpgPiUJ41">
    <mxGraphModel>
      <root>
        <mxCell id="0" />
        <mxCell id="1" parent="0" />
      </root>
    </mxGraphModel>
  </diagram>
</mxfile>
